<svg xmlns="http://www.w3.org/2000/svg" viewBox="0 0 429 429">
  <path fill="#00efd1" d="M410 182v54l-18 3c-20-24-50-38-82-38l-13 1a87 87 0 10-95 94l-1 14c0 32 15 63 40 84l-2 2-2 14h-55l-6-40c-20-5-38-12-55-23l-33 23-39-38 24-33c-11-17-18-36-23-55l-40-7v-55l40-6c4-19 12-38 23-55L49 88l39-39 33 24c17-11 35-18 55-23l6-40h55l7 40c19 4 38 12 54 23l34-25 39 39-24 34c11 17 18 35 23 55l40 6z"/>
  <path fill="#00acea" d="M392 239c17 20 27 45 27 71 0 60-49 109-109 109a109 109 0 01-108-123c7-49 46-88 95-94l13-1c32 0 62 14 82 38z"/>
  <g fill="#083863">
    <path d="M411 247c5-1 8-6 7-11v-54c1-5-2-9-7-10l-33-6c-4-16-10-31-18-45l19-28c3-4 2-10-1-14l-38-38c-4-4-10-4-14-1l-28 20c-14-8-29-14-45-19l-6-33c0-5-5-8-10-8h-54c-5 0-10 3-11 8l-5 33c-16 5-31 11-46 19L94 40c-5-2-10-2-14 1L41 80c-3 4-4 9-1 14l20 27c-8 14-14 30-19 46l-33 5c-5 1-8 6-8 11v54c0 5 3 10 8 10l33 6c5 16 11 31 19 45l-20 28c-2 4-2 10 1 14l39 38c4 4 9 4 14 1l27-20c15 9 30 15 46 19l5 33c2 4 6 8 11 7h54c5 0 9-3 10-7a119 119 0 00164-164zM191 397l-5-30c0-4-4-8-8-8-18-4-36-11-51-21-4-2-9-2-12 1l-26 18-26-26 18-26c2-4 2-8 0-12-10-16-17-33-21-52 0-4-4-7-8-7l-31-6v-37l31-5c4 0 8-4 8-8 4-18 11-36 21-52 3-3 3-8 0-11L63 89l26-26 26 18c4 2 8 2 12 0 15-10 33-17 51-21 4-1 7-4 8-8l5-31h37l6 31c0 4 3 8 7 8 19 4 36 11 52 21 4 3 8 3 12 0l26-19 26 26-18 26c-3 4-3 8 0 12 9 16 16 33 21 52 1 4 3 7 7 7l30 6v37h-2c-22-24-53-38-86-38h-3c-10-46-50-78-96-79a98 98 0 00-19 194v5c0 32 13 64 37 86v1h-37zm3-113a77 77 0 1191-90c-45 9-81 45-91 90zm116 124a98 98 0 01-97-110c5-45 41-80 85-85l12-1a98 98 0 110 196z"/>
    <path d="M287 355c-3 0-6-2-8-4l-32-47a11 11 0 0118-12l26 38 69-46a11 11 0 0112 17l-79 53-6 1z"/>
  </g>
</svg>